<svg width="64" height="64" viewBox="0 0 64 64" fill="none" xmlns="http://www.w3.org/2000/svg">
  <defs>
    <linearGradient id="heartGradient" x1="0%" y1="0%" x2="100%" y2="100%">
      <stop offset="0%" style="stop-color:#0ea5e9;stop-opacity:1" />
      <stop offset="100%" style="stop-color:#d946ef;stop-opacity:1" />
    </linearGradient>
  </defs>
  
  <!-- Background circle -->
  <circle cx="32" cy="32" r="30" fill="url(#heartGradient)" opacity="0.1"/>
  
  <!-- Heart shape representing empathy and care -->
  <path d="M32 52C32 52 12 40 12 26C12 20 16 16 20 16C24 16 28 19 32 24C36 19 40 16 44 16C48 16 52 20 52 26C52 40 32 52 32 52Z" 
        fill="url(#heartGradient)" 
        stroke="url(#heartGradient)" 
        stroke-width="2"/>
  
  <!-- Pulse line representing presence and vitality -->
  <path d="M16 32 L22 32 L26 26 L30 38 L34 28 L38 32 L48 32" 
        stroke="white" 
        stroke-width="2.5" 
        stroke-linecap="round" 
        stroke-linejoin="round" 
        fill="none"
        opacity="0.9"/>
</svg>

